<svg xmlns="http://www.w3.org/2000/svg" viewBox="0 0 512 512" width="512" height="512" role="img" aria-label="My Yarn Diary">
  <!-- GENERATED FILE - do not edit by hand.
       Regenerate with: npm run generate-logo (see scripts/generate-logo.mjs)

       A full-bleed brand tile carrying the "My Yarn Diary" logotype in Grand
       Hotel, matching the in-app wordmark. Text is outlined to paths, so no
       webfont is needed. It is held inside the centre of the tile so Android's
       circular maskable crop never cuts into it. -->
  <rect width="512" height="512" fill="#D6708A" />
  <g fill="#FFF8F5" transform="translate(250.00 225.32) scale(1.1537)">
    <path d="M-85.42-1.90Q-84.84-1.51-85.18-0.73Q-85.52 0.05-86.45 0.85Q-87.38 1.66-88.65 2.25Q-89.92 2.83-91.19 2.78Q-92.41 2.73-93.58 2.05Q-94.75 1.37-95.65-0.07Q-96.56-1.51-97.12-3.66Q-97.68-5.81-97.68-8.79L-97.68-55.08Q-97.68-57.91-98.24-59.47Q-98.80-61.04-99.56-61.74Q-100.32-62.45-101.12-62.57Q-101.93-62.70-102.42-62.70Q-102.95-62.70-103.78-62.55Q-104.61-62.40-105.37-61.60Q-106.13-60.79-106.67-59.06Q-107.20-57.32-107.20-54.10L-107.20-0.10Q-107.06-0.10-106.88 0.07Q-106.71 0.24-106.71 0.39Q-106.71 0.78-107.28 1.20Q-107.84 1.61-108.67 1.98Q-109.50 2.34-110.55 2.56Q-111.60 2.78-112.52 2.78Q-113.50 2.78-114.26 2.54Q-115.01 2.29-115.01 0.88L-115.01-55.08Q-115.01-57.91-115.53-59.47Q-116.04-61.04-116.77-61.74Q-117.50-62.45-118.31-62.57Q-119.12-62.70-119.70-62.70Q-120.19-62.70-121-62.57Q-121.80-62.45-122.58-61.74Q-123.36-61.04-123.93-59.47Q-124.49-57.91-124.49-55.08L-124.49-10.79Q-124.49-4.15-126.68-0.68Q-128.88 2.78-133.08 2.78Q-134.50 2.78-135.40 2.29Q-136.30 1.81-136.84 1.07Q-137.38 0.34-137.60-0.49Q-137.82-1.32-137.82-2Q-137.82-2.34-137.60-2.44Q-137.38-2.54-136.99-2.54Q-136.60-2.54-136.11-2.56Q-135.62-2.59-135.08-2.78Q-134.59-2.98-134.08-3.56Q-133.57-4.15-133.18-5.27Q-132.79-6.40-132.54-8.11Q-132.30-9.81-132.30-12.30L-132.30-54.10Q-132.30-58.50-131.20-61.52Q-130.10-64.55-128.34-66.46Q-126.59-68.36-124.37-69.19Q-122.14-70.02-119.90-70.02Q-119.26-70.02-118.19-69.90Q-117.11-69.78-115.82-69.34Q-114.53-68.90-113.21-68.09Q-111.89-67.29-110.72-65.92Q-109.79-67.29-108.67-68.09Q-107.54-68.90-106.45-69.34Q-105.35-69.78-104.35-69.90Q-103.34-70.02-102.61-70.02Q-100.27-70.02-98-69.19Q-95.73-68.36-93.95-66.46Q-92.16-64.55-91.04-61.52Q-89.92-58.50-89.92-54.10L-89.92-9.62Q-89.92-8.06-89.55-6.81Q-89.18-5.57-88.57-4.61Q-87.96-3.66-87.13-3Q-86.30-2.34-85.42-1.90M-44.70-14.60Q-44.26-16.16-43.68-16.87Q-43.09-17.58-42.31-17.58Q-41.72-17.58-41.09-17.21Q-40.45-16.85-39.94-16.26Q-39.43-15.67-39.11-14.94Q-38.79-14.21-38.79-13.48Q-38.79-13.38-38.79-13.09Q-38.79-12.79-38.89-12.50Q-40.16-8.15-41.85-4.81Q-43.53-1.46-45.46 1.17Q-47.39 3.81-49.44 5.88Q-51.49 7.96-53.54 9.72L-53.54 27Q-53.54 30.96-54.44 33.67Q-55.35 36.38-56.81 38.06Q-58.28 39.75-60.13 40.48Q-61.99 41.21-63.89 41.21Q-65.99 41.21-67.75 40.31Q-69.51 39.40-70.80 37.84Q-72.09 36.28-72.80 34.18Q-73.51 32.08-73.51 29.69Q-73.51 25.88-72.51 22.95Q-71.51 20.02-69.80 17.58Q-68.09 15.14-65.84 13.01Q-63.60 10.89-61.11 8.69L-61.11-4Q-62.92-0.98-65.31 0.95Q-67.70 2.88-70.92 2.88Q-73.41 2.88-75.39 1.86Q-77.37 0.83-78.74-1.05Q-80.10-2.93-80.81-5.59Q-81.52-8.25-81.52-11.52Q-81.52-15.48-80.96-19.48Q-80.40-23.49-79.71-26.71Q-78.93-30.47-77.91-33.98Q-77.66-34.62-77.54-35.28Q-77.42-35.94-76.98-36.47Q-76.54-37.01-75.59-37.35Q-74.63-37.70-72.63-37.70Q-70.78-37.70-70.24-37.04Q-69.70-36.38-69.82-35.50Q-69.95-34.62-70.41-33.69Q-70.87-32.76-71.02-32.18Q-71.70-29.39-72.24-27.10Q-72.78-24.80-73.14-22.49Q-73.51-20.17-73.71-17.65Q-73.90-15.14-73.90-12.01Q-73.90-7.91-72.71-5.81Q-71.51-3.71-69.31-3.71Q-67.80-3.71-66.50-4.83Q-65.21-5.96-64.16-7.84Q-63.11-9.72-62.33-12.13Q-61.55-14.55-61.11-17.19L-61.11-33.30Q-61.11-34.72-61.30-35.35Q-61.50-35.99-61.50-36.52Q-61.50-37.26-60.74-37.72Q-59.99-38.18-58.91-38.18Q-56.42-38.18-54.98-36.89Q-53.54-35.60-53.54-33.79L-53.54 1.32Q-50.81-1.71-48.51-5.57Q-46.22-9.42-44.70-14.60M-63.89 34.91Q-62.72 34.91-62.13 33.94Q-61.55 32.96-61.33 31.67Q-61.11 30.37-61.11 29.05Q-61.11 27.73-61.11 27L-61.11 16.31Q-63.55 18.75-65.04 21.83Q-66.53 24.90-66.53 29.39Q-66.53 31.74-65.82 33.33Q-65.11 34.91-63.89 34.91M30.10-65.58L30.10 0.49L30.10 3.52Q31.52 3.27 32.86 3.17Q34.20 3.08 35.38 2.98Q36.55 2.93 37.16 3.47Q37.77 4 37.92 4.88Q38.06 5.76 37.82 6.79Q37.57 7.81 37.04 8.72Q36.50 9.62 35.74 10.25Q34.99 10.89 34.11 10.89Q32.98 10.89 31.98 10.94Q30.98 10.99 30 11.08Q29.76 15.43 29.05 19.75Q28.34 24.07 26.73 27.56Q25.12 31.05 22.39 33.23Q19.65 35.40 15.31 35.40Q12.72 35.40 10.64 34.50Q8.57 33.59 7.10 32.01Q5.64 30.42 4.86 28.27Q4.08 26.12 4.08 23.58Q4.08 19.78 5.64 16.85Q7.20 13.92 9.74 11.67Q12.28 9.42 15.55 7.89Q18.82 6.35 22.29 5.32L22.29 4.20L22.29-9.62Q20.73-7.03 18.97-4.76Q17.21-2.49 15.28-0.81Q13.35 0.88 11.30 1.83Q9.25 2.78 7.10 2.78Q6.03 2.78 4.83 2.34Q3.64 1.90 2.64 0.90Q1.64-0.10 0.98-1.76Q0.32-3.42 0.32-5.91L0.32-62.21Q-3.05-61.77-6.05-60.30Q-9.06-58.84-11.28-56.30Q-13.50-53.76-14.79-50.15Q-16.09-46.53-16.09-41.80Q-16.09-38.77-15.45-36.35Q-14.82-33.94-13.94-32.25Q-13.06-30.57-12.18-29.64Q-11.30-28.71-10.82-28.71Q-10.38-28.71-9.99-28.91Q-9.59-29.10-9.20-29.10Q-8.42-29.10-8.42-27.88Q-8.42-26.32-9.13-24.88Q-9.84-23.44-10.91-22.53Q-11.99-21.63-13.26-21.39Q-14.53-21.14-15.60-21.92Q-16.92-22.80-18.41-24.61Q-19.90-26.42-21.14-28.98Q-22.39-31.54-23.19-34.77Q-24-37.99-24-41.80Q-24-47.07-22.73-51.25Q-21.46-55.42-19.34-58.54Q-17.21-61.67-14.38-63.87Q-11.55-66.06-8.42-67.43Q-5.30-68.80-2.08-69.41Q1.15-70.02 4.08-70.02Q4.86-70.02 5.59-69.70Q6.32-69.38 6.86-68.82Q7.40-68.26 7.74-67.48Q8.08-66.70 8.08-65.82L8.08-6.49Q8.08-5.52 8.40-5.30Q8.72-5.08 9.01-5.08Q9.74-5.08 11.01-6.13Q12.28-7.18 13.77-8.91Q15.26-10.64 16.77-12.92Q18.29-15.19 19.51-17.63Q20.73-20.07 21.51-22.51Q22.29-24.95 22.29-27.10L22.29-65.09Q22.29-66.50 22.09-67.14Q21.90-67.77 21.90-68.31Q21.90-69.04 22.66-69.53Q23.41-70.02 24.49-70.02Q26.98-70.02 28.54-68.73Q30.10-67.43 30.10-65.58M15.50 27.69Q17.16 27.69 18.33 26.46Q19.51 25.24 20.29 23.17Q21.07 21.09 21.48 18.38Q21.90 15.67 22.09 12.70Q17.11 14.21 14.50 16.92Q11.89 19.63 11.89 23.39Q11.89 25.68 12.94 26.68Q13.99 27.69 15.50 27.69M68.09-3.81Q69.60-3.81 70.70-4.88Q71.80-5.96 72.61-7.57Q73.41-9.18 73.93-11.06Q74.44-12.94 74.78-14.60Q75.12-16.16 75.78-16.87Q76.44-17.58 77.22-17.58Q77.81-17.58 78.42-17.21Q79.03-16.85 79.54-16.26Q80.05-15.67 80.37-14.94Q80.69-14.21 80.69-13.48Q80.69-13.38 80.69-13.23Q80.69-13.09 80.59-12.79Q79.96-10.30 78.86-7.57Q77.76-4.83 76.05-2.54Q74.34-0.24 71.92 1.27Q69.51 2.78 66.28 2.78Q63.65 2.78 61.69 1.66Q59.74 0.54 58.62-1.32Q57.10 0.39 54.98 1.59Q52.86 2.78 50.02 2.78Q47.09 2.78 44.87 1.61Q42.65 0.44 41.14-1.59Q39.62-3.61 38.87-6.37Q38.11-9.13 38.11-12.30Q38.11-18.55 40.11-23.54Q42.11-28.52 45.43-32.01Q48.75-35.50 53.03-37.35Q57.30-39.21 61.89-39.21Q63.94-39.21 65.21-38.09Q66.48-36.96 66.48-35.01Q66.48-33.74 66.21-33.23Q65.94-32.71 65.21-32.71Q64.53-32.71 63.79-32.81Q63.06-32.91 62.28-32.91Q59.45-32.91 56.52-31.67Q53.59-30.42 51.22-27.86Q48.85-25.29 47.34-21.36Q45.83-17.43 45.83-12.01Q45.83-8.06 47.34-5.93Q48.85-3.81 51.49-3.81Q53.54-3.81 54.91-5.35Q56.27-6.88 57.10-8.98L57.10-24.41Q57.10-25.15 57.03-25.63Q56.96-26.12 56.88-26.46Q56.81-26.81 56.76-27.08Q56.71-27.34 56.71-27.59Q56.71-28.37 57.47-28.83Q58.23-29.30 59.30-29.30Q61.79-29.30 63.26-28Q64.72-26.71 64.72-24.90L64.72-8.40Q64.72-7.57 64.92-6.76Q65.11-5.96 65.50-5.30Q65.89-4.64 66.55-4.22Q67.21-3.81 68.09-3.81M97 2.78Q95.24 2.78 93.41 2.25Q91.58 1.71 90.09 0.39Q88.60-0.93 87.65-3.10Q86.69-5.27 86.69-8.59Q86.69-13.43 87.99-18.82Q89.28-24.22 91.72-30.71L84.11-30.71L82.98-30.71Q82.93-29.25 82.81-27Q82.69-24.76 82.40-22.22Q82.10-19.68 81.64-17.09Q81.18-14.50 80.49-12.30Q80-10.74 78.96-10.50Q77.91-10.25 76.88-10.86Q75.85-11.47 75.22-12.65Q74.58-13.82 74.93-15.09Q75.32-16.60 75.61-18.77Q75.90-20.95 76.07-23.36Q76.25-25.78 76.34-28.20Q76.44-30.62 76.49-32.52Q74.63-33.54 73.41-35.13Q72.19-36.72 72.19-38.92Q72.19-39.94 72.61-40.80Q73.02-41.65 73.71-42.26Q74.39-42.87 75.32-43.19Q76.25-43.51 77.22-43.51Q78.10-43.51 79.05-43.26Q80-43.02 80.86-42.38Q81.71-41.75 82.40-40.72Q83.08-39.70 83.52-38.18Q84.74-38.04 85.60-37.96Q86.45-37.89 87.04-37.84Q87.62-37.79 88.01-37.79Q88.40-37.79 88.79-37.79L94.02-37.79Q94.46-37.79 95.31-37.26Q96.17-36.72 97-35.86Q97.83-35.01 98.39-34.03Q98.95-33.06 98.80-32.18Q98.80-31.88 98.46-30.76Q98.12-29.64 97.63-27.93Q97.14-26.22 96.56-24Q95.97-21.78 95.48-19.34Q95-16.89 94.65-14.28Q94.31-11.67 94.31-9.18Q94.31-8.15 94.56-7.18Q94.80-6.20 95.29-5.44Q95.78-4.69 96.53-4.25Q97.29-3.81 98.32-3.81Q100.02-3.81 101.25-4.88Q102.47-5.96 103.30-7.57Q104.13-9.18 104.64-11.06Q105.15-12.94 105.49-14.60Q105.79-16.16 106.47-16.87Q107.15-17.58 107.89-17.58Q108.47-17.58 109.11-17.21Q109.74-16.85 110.25-16.26Q110.77-15.67 111.08-14.94Q111.40-14.21 111.40-13.48Q111.40-13.23 111.35-13.09Q111.30-12.94 111.30-12.79Q110.62-10.30 109.52-7.57Q108.42-4.83 106.71-2.54Q105-0.24 102.61 1.27Q100.22 2.78 97 2.78M105.93-1.61L105.93-33.30Q105.93-34.72 105.71-35.35Q105.49-35.99 105.49-36.52Q105.49-37.26 106.27-37.72Q107.06-38.18 108.13-38.18Q110.62-38.18 112.06-36.89Q113.50-35.60 113.50-33.79L113.50-29.30Q114.53-31.40 115.72-33.20Q116.92-35.01 118.31-36.35Q119.70-37.70 121.29-38.45Q122.88-39.21 124.73-39.21Q127.22-39.21 128.83-38.28Q130.44-37.35 131.37-35.89Q132.30-34.42 132.67-32.62Q133.03-30.81 133.03-29.10L133.03-8.40Q133.03-8.06 133.08-7.30Q133.13-6.54 133.37-5.76Q133.62-4.98 134.13-4.39Q134.64-3.81 135.62-3.81Q137.13-3.81 138.23-4.88Q139.33-5.96 140.14-7.57Q140.94-9.18 141.46-11.06Q141.97-12.94 142.31-14.60Q142.60-16.16 143.29-16.87Q143.97-17.58 144.70-17.58Q145.29-17.58 145.92-17.21Q146.56-16.85 147.07-16.26Q147.58-15.67 147.90-14.94Q148.22-14.21 148.22-13.48Q148.22-13.38 148.22-13.23Q148.22-13.09 148.12-12.79Q147.49-10.30 146.39-7.57Q145.29-4.83 143.55-2.54Q141.82-0.24 139.43 1.27Q137.04 2.78 133.81 2.78Q131.81 2.78 130.27 2.03Q128.74 1.27 127.64 0Q126.54-1.27 125.98-2.98Q125.42-4.69 125.42-6.59L125.42-26.90Q125.42-28.08 125.37-29.10Q125.32-30.13 125.10-30.91Q124.88-31.69 124.46-32.15Q124.05-32.62 123.32-32.62Q122.24-32.62 120.68-31.15Q119.12-29.69 117.60-27.34Q116.09-25 114.94-22.05Q113.79-19.09 113.50-16.11L113.50-1.51Q113.50-0.78 113.48-0.02Q113.45 0.73 113.18 1.34Q112.92 1.95 112.35 2.37Q111.79 2.78 110.72 2.78Q109.99 2.78 109.13 2.61Q108.28 2.44 107.57 1.98Q106.86 1.51 106.40 0.66Q105.93-0.20 105.93-1.61" />
    <path d="M-62.60 30.39L-62.60 69.70Q-62.60 73.85-61.30 75.97Q-60.01 78.09-56.98 78.09Q-55.08 78.09-53.12 76.87Q-51.17 75.65-49.32 73.38Q-47.46 71.11-45.87 67.91Q-44.29 64.71-43.07 60.78Q-41.85 56.85-41.16 52.26Q-40.48 47.67-40.48 42.69Q-40.48 37.66-41.58 33.17Q-42.68 28.68-45 25.33Q-47.31 21.99-50.90 20.04Q-54.49 18.08-59.47 18.08Q-63.62 18.08-66.80 19.01Q-69.97 19.94-72.29 21.58Q-74.61 23.21-76.20 25.41Q-77.78 27.61-78.74 30.12Q-79.69 32.63-80.08 35.34Q-80.47 38.05-80.47 40.69Q-80.47 44.30-79.71 47.14Q-78.96 49.97-78 51.95Q-77.05 53.92-76.20 55Q-75.34 56.07-75.20 56.22Q-74.37 55.97-74.02 56.41Q-73.68 56.85-73.68 57.59Q-73.68 58.56-74.10 59.61Q-74.51 60.66-75.20 61.52Q-75.88 62.37-76.73 62.93Q-77.59 63.49-78.47 63.49Q-78.86 63.49-79.22 63.40Q-79.59 63.30-79.98 63.01Q-80.08 62.96-80.71 62.30Q-81.35 61.64-82.28 60.42Q-83.20 59.20-84.25 57.37Q-85.30 55.54-86.21 53.14Q-87.11 50.75-87.70 47.77Q-88.28 44.79-88.28 41.28Q-88.28 34.49-86.21 28.80Q-84.13 23.11-80.32 19.04Q-76.51 14.96-71.14 12.69Q-65.77 10.42-59.18 10.42Q-52.20 10.42-47.14 13.08Q-42.09 15.74-38.84 20.13Q-35.60 24.53-34.03 30.19Q-32.47 35.86-32.47 41.91Q-32.47 48.99-33.57 55Q-34.67 61-36.55 65.89Q-38.43 70.77-40.92 74.50Q-43.41 78.24-46.19 80.75Q-48.97 83.27-51.90 84.54Q-54.83 85.81-57.57 85.81Q-61.08 85.81-63.55 84.71Q-66.02 83.61-67.53 81.49Q-69.04 79.36-69.73 76.26Q-70.41 73.16-70.41 69.21L-70.41 30.88Q-70.41 29.46-70.61 28.85Q-70.80 28.24-70.80 27.70Q-70.80 26.92-70.02 26.46Q-69.24 25.99-68.16 25.99Q-65.67 25.99-64.14 27.29Q-62.60 28.58-62.60 30.39M-20.41 33.90Q-21.63 33.90-22.73 33.42Q-23.83 32.93-24.63 32.10Q-25.44 31.27-25.93 30.17Q-26.42 29.07-26.42 27.80Q-26.42 26.48-25.93 25.36Q-25.44 24.24-24.63 23.43Q-23.83 22.63-22.73 22.16Q-21.63 21.70-20.41 21.70Q-19.09 21.70-17.97 22.16Q-16.85 22.63-16.04 23.43Q-15.23 24.24-14.77 25.36Q-14.31 26.48-14.31 27.80Q-14.31 29.07-14.77 30.17Q-15.23 31.27-16.04 32.10Q-16.85 32.93-17.97 33.42Q-19.09 33.90-20.41 33.90M-18.12 48.21L-18.12 73.60Q-18.12 73.94-18.07 74.70Q-18.02 75.46-17.77 76.24Q-17.53 77.02-16.99 77.61Q-16.46 78.19-15.48 78.19Q-14.01 78.19-12.92 77.12Q-11.82 76.04-11.01 74.43Q-10.21 72.82-9.67 70.94Q-9.13 69.06-8.79 67.40Q-8.50 65.89-7.89 65.20Q-7.28 64.52-6.57 64.45Q-5.86 64.37-5.15 64.81Q-4.44 65.25-3.88 65.96Q-3.32 66.67-3.05 67.55Q-2.78 68.43-2.98 69.21Q-3.66 71.70-4.76 74.43Q-5.86 77.17-7.57 79.46Q-9.28 81.76-11.67 83.27Q-14.06 84.78-17.29 84.78Q-19.29 84.78-20.85 84.03Q-22.41 83.27-23.49 82Q-24.56 80.73-25.12 79.02Q-25.68 77.31-25.68 75.41L-25.68 48.70Q-25.68 47.28-25.90 46.65Q-26.12 46.01-26.12 45.48Q-26.12 44.74-25.34 44.28Q-24.56 43.82-23.49 43.82Q-21 43.82-19.56 45.11Q-18.12 46.40-18.12 48.21M19.87 78.19Q21.39 78.19 22.49 77.12Q23.58 76.04 24.39 74.43Q25.20 72.82 25.71 70.94Q26.22 69.06 26.56 67.40Q26.90 65.84 27.56 65.13Q28.22 64.42 29 64.42Q29.59 64.42 30.20 64.79Q30.81 65.15 31.32 65.74Q31.84 66.33 32.15 67.06Q32.47 67.79 32.47 68.52Q32.47 68.62 32.47 68.77Q32.47 68.91 32.37 69.21Q31.74 71.70 30.64 74.43Q29.54 77.17 27.83 79.46Q26.12 81.76 23.71 83.27Q21.29 84.78 18.07 84.78Q15.43 84.78 13.48 83.66Q11.52 82.54 10.40 80.68Q8.89 82.39 6.76 83.59Q4.64 84.78 1.81 84.78Q-1.12 84.78-3.34 83.61Q-5.57 82.44-7.08 80.41Q-8.59 78.39-9.35 75.63Q-10.11 72.87-10.11 69.70Q-10.11 63.45-8.11 58.46Q-6.10 53.48-2.78 49.99Q0.54 46.50 4.81 44.65Q9.08 42.79 13.67 42.79Q15.72 42.79 16.99 43.91Q18.26 45.04 18.26 46.99Q18.26 48.26 17.99 48.77Q17.72 49.29 16.99 49.29Q16.31 49.29 15.58 49.19Q14.84 49.09 14.06 49.09Q11.23 49.09 8.30 50.33Q5.37 51.58 3 54.14Q0.63 56.71-0.88 60.64Q-2.39 64.57-2.39 69.99Q-2.39 73.94-0.88 76.07Q0.63 78.19 3.27 78.19Q5.32 78.19 6.69 76.65Q8.06 75.12 8.89 73.02L8.89 57.59Q8.89 56.85 8.81 56.37Q8.74 55.88 8.67 55.54Q8.59 55.19 8.54 54.92Q8.50 54.66 8.50 54.41Q8.50 53.63 9.25 53.17Q10.01 52.70 11.08 52.70Q13.57 52.70 15.04 54Q16.50 55.29 16.50 57.10L16.50 73.60Q16.50 74.43 16.70 75.24Q16.89 76.04 17.29 76.70Q17.68 77.36 18.33 77.78Q18.99 78.19 19.87 78.19M48.78 84.78Q47.02 84.78 45.19 84.25Q43.36 83.71 41.87 82.39Q40.38 81.07 39.43 78.90Q38.48 76.73 38.48 73.41Q38.48 68.57 39.77 63.18Q41.06 57.78 43.51 51.29L35.89 51.29L34.77 51.29Q34.72 52.75 34.59 55Q34.47 57.24 34.18 59.78Q33.89 62.32 33.42 64.91Q32.96 67.50 32.28 69.70Q31.79 71.26 30.74 71.50Q29.69 71.75 28.66 71.14Q27.64 70.53 27 69.35Q26.37 68.18 26.71 66.91Q27.10 65.40 27.39 63.23Q27.69 61.05 27.86 58.64Q28.03 56.22 28.13 53.80Q28.22 51.38 28.27 49.48Q26.42 48.46 25.20 46.87Q23.97 45.28 23.97 43.08Q23.97 42.06 24.39 41.20Q24.80 40.35 25.49 39.74Q26.17 39.13 27.10 38.81Q28.03 38.49 29 38.49Q29.88 38.49 30.83 38.74Q31.79 38.98 32.64 39.62Q33.50 40.25 34.18 41.28Q34.86 42.30 35.30 43.82Q36.52 43.96 37.38 44.04Q38.23 44.11 38.82 44.16Q39.40 44.21 39.79 44.21Q40.19 44.21 40.58 44.21L45.80 44.21Q46.24 44.21 47.09 44.74Q47.95 45.28 48.78 46.14Q49.61 46.99 50.17 47.97Q50.73 48.94 50.59 49.82Q50.59 50.12 50.24 51.24Q49.90 52.36 49.41 54.07Q48.93 55.78 48.34 58Q47.75 60.22 47.27 62.66Q46.78 65.11 46.44 67.72Q46.09 70.33 46.09 72.82Q46.09 73.85 46.34 74.82Q46.58 75.80 47.07 76.56Q47.56 77.31 48.32 77.75Q49.07 78.19 50.10 78.19Q51.81 78.19 53.03 77.12Q54.25 76.04 55.08 74.43Q55.91 72.82 56.42 70.94Q56.93 69.06 57.28 67.40Q57.57 65.84 58.25 65.13Q58.94 64.42 59.67 64.42Q60.25 64.42 60.89 64.79Q61.52 65.15 62.04 65.74Q62.55 66.33 62.87 67.06Q63.18 67.79 63.18 68.52Q63.18 68.77 63.13 68.91Q63.09 69.06 63.09 69.21Q62.40 71.70 61.30 74.43Q60.21 77.17 58.50 79.46Q56.79 81.76 54.39 83.27Q52 84.78 48.78 84.78M93.21 67.40Q93.65 65.84 94.24 65.13Q94.82 64.42 95.61 64.42Q96.19 64.42 96.83 64.79Q97.46 65.15 97.97 65.74Q98.49 66.33 98.80 67.06Q99.12 67.79 99.12 68.52Q99.12 68.62 99.12 68.91Q99.12 69.21 99.02 69.50Q97.75 73.85 96.07 77.19Q94.38 80.54 92.46 83.17Q90.53 85.81 88.48 87.88Q86.43 89.96 84.38 91.72L84.38 109Q84.38 112.96 83.47 115.67Q82.57 118.38 81.10 120.06Q79.64 121.75 77.78 122.48Q75.93 123.21 74.02 123.21Q71.92 123.21 70.17 122.31Q68.41 121.40 67.11 119.84Q65.82 118.28 65.11 116.18Q64.40 114.08 64.40 111.69Q64.40 107.88 65.41 104.95Q66.41 102.02 68.12 99.58Q69.82 97.14 72.07 95.01Q74.32 92.89 76.81 90.69L76.81 78Q75 81.02 72.61 82.95Q70.21 84.88 66.99 84.88Q64.50 84.88 62.52 83.86Q60.55 82.83 59.18 80.95Q57.81 79.07 57.10 76.41Q56.40 73.75 56.40 70.48Q56.40 66.52 56.96 62.52Q57.52 58.51 58.20 55.29Q58.98 51.53 60.01 48.02Q60.25 47.38 60.38 46.72Q60.50 46.06 60.94 45.53Q61.38 44.99 62.33 44.65Q63.28 44.30 65.28 44.30Q67.14 44.30 67.68 44.96Q68.21 45.62 68.09 46.50Q67.97 47.38 67.50 48.31Q67.04 49.24 66.89 49.82Q66.21 52.61 65.67 54.90Q65.14 57.20 64.77 59.51Q64.40 61.83 64.21 64.35Q64.01 66.86 64.01 69.99Q64.01 74.09 65.21 76.19Q66.41 78.29 68.60 78.29Q70.12 78.29 71.41 77.17Q72.71 76.04 73.75 74.16Q74.80 72.28 75.59 69.87Q76.37 67.45 76.81 64.81L76.81 48.70Q76.81 47.28 76.61 46.65Q76.42 46.01 76.42 45.48Q76.42 44.74 77.17 44.28Q77.93 43.82 79 43.82Q81.49 43.82 82.93 45.11Q84.38 46.40 84.38 48.21L84.38 83.32Q87.11 80.29 89.40 76.43Q91.70 72.58 93.21 67.40M74.02 116.91Q75.20 116.91 75.78 115.94Q76.37 114.96 76.59 113.67Q76.81 112.37 76.81 111.05Q76.81 109.73 76.81 109L76.81 98.31Q74.37 100.75 72.88 103.83Q71.39 106.90 71.39 111.39Q71.39 113.74 72.09 115.33Q72.80 116.91 74.02 116.91" />
  </g>
</svg>
